# xmcd
#
# Track frame offsets:
#  225
#  18247
#  36036
#  54729
#  71556
#  85292
#  102877
#  118687
#  135745
#  152222
#  166635
#  178155
#  190307
#
# Disc length: 2744 seconds
#
# Revision: 1
# Processed by: cddbd v1.4PL0 Copyright (c) Steve Scherf et al.
# Submitted via: AltoMP3_Maker 3.0
#
DISCID=ac0ab50d
DTITLE=Iman - Atrayendo Corazones
DYEAR=1900
DGENRE=
TTITLE0=Uno,Dos Y Tres-crls
TTITLE1=Mientras Te Olvido-crls
TTITLE2=Coleccionando Torpezas-crls
TTITLE3=No Se Olvidar-crls
TTITLE4=Se Murio El Amor-crls
TTITLE5=Llevame-crls
TTITLE6=De Que Sirvio-crls
TTITLE7=Muy Tarde-crls
TTITLE8=Sera Mejor-crls
TTITLE9=Mi Buena Suerte-crls
TTITLE10=Mundo Extraño-crls
TTITLE11=Comprendi Tu Pena-crls
TTITLE12=El Peor Castigo-crls
EXTD=
EXTT0=
EXTT1=
EXTT2=
EXTT3=
EXTT4=
EXTT5=
EXTT6=
EXTT7=
EXTT8=
EXTT9=
EXTT10=
EXTT11=
EXTT12=
PLAYORDER=
